<svg width="1em" height="1em" viewBox="0 0 24 24" xmlns="http://www.w3.org/2000/svg">
  <g fill="currentColor">
    <path d="M13.8,13.6c-0.6,1.4-2,2.4-3.6,2.4c-2.2,0-3.9-1.8-3.9-3.9s1.8-3.9,3.9-3.9c1.6,0,3,1,3.6,2.4H17
		c-0.7-3.1-3.5-5.4-6.8-5.4c-3.8,0-7,3.1-7,7s3.1,7,7,7c3.3,0,6.1-2.3,6.8-5.4L13.8,13.6L13.8,13.6z" />
    <path d="M20.7,11.9l-2.3-1.4c0,0-0.1,0-0.1,0v1.1h-6.7c-0.1-0.7-0.7-1.2-1.5-1.2c-0.8,0-1.5,0.7-1.5,1.5
		s0.7,1.5,1.5,1.5c0.7,0,1.3-0.5,1.5-1.2h6.7v1.1c0,0,0,0.1,0.1,0L20.7,11.9C20.8,11.9,20.8,11.9,20.7,11.9L20.7,11.9z" />
  </g>
</svg>
