<svg width="1em" height="1em" viewBox="0 0 24 24" xmlns="http://www.w3.org/2000/svg">
  <g fill="currentColor">
    <path
      d="M15.957 11.144C15.847 11.034 15.706 10.961 15.553 10.935C15.4 10.909 15.243 10.931 15.103 10.997L10.405 15.635L8.95102 14.181C8.81102 14.114 8.65402 14.092 8.50102 14.119C8.34802 14.145 8.20702 14.218 8.09702 14.328C7.98702 14.438 7.91402 14.579 7.88802 14.732C7.86202 14.885 7.88402 15.042 7.95002 15.182L9.93402 17.166C10.062 17.311 10.241 17.401 10.434 17.416C10.627 17.401 10.806 17.311 10.934 17.166L16.102 11.998C16.169 11.858 16.191 11.701 16.164 11.548C16.139 11.394 16.066 11.253 15.957 11.144Z" />
    <path
      d="M18.023 5.4H14.855C14.522 4.145 13.389 3.216 12.03 3.216C10.671 3.216 9.53802 4.145 9.20502 5.4H6.03702C4.52102 5.4 3.28802 6.633 3.28802 8.149V17.965C3.28802 19.481 4.52102 20.713 6.03702 20.713H18.023C19.539 20.713 20.771 19.481 20.771 17.965V8.149C20.771 6.633 19.539 5.4 18.023 5.4ZM12.03 5.138C12.589 5.138 13.042 5.591 13.042 6.15C13.042 6.709 12.589 7.162 12.03 7.162C11.471 7.162 11.018 6.709 11.018 6.15C11.018 5.591 11.471 5.138 12.03 5.138ZM19.271 17.965C19.271 18.653 18.711 19.213 18.023 19.213H6.03702C5.34902 19.213 4.78802 18.653 4.78802 17.965V8.149C4.78802 7.461 5.34802 6.9 6.03702 6.9H7.26102V8.742C7.26102 8.931 7.41402 9.084 7.60302 9.084H16.456C16.645 9.084 16.798 8.931 16.798 8.742V6.9H18.023C18.711 6.9 19.271 7.461 19.271 8.149V17.965Z" />
  </g>
</svg>
