<svg width="1em" height="1em" viewBox="0 0 24 24" xmlns="http://www.w3.org/2000/svg">
  <g fill="currentColor">
    <path
      d="M8.896 13.807C9.86249 13.807 10.646 13.0235 10.646 12.057C10.646 11.0905 9.86249 10.307 8.896 10.307C7.9295 10.307 7.146 11.0905 7.146 12.057C7.146 13.0235 7.9295 13.807 8.896 13.807Z" />
    <path
      d="M8.896 6.807C9.86249 6.807 10.646 6.0235 10.646 5.057C10.646 4.0905 9.86249 3.307 8.896 3.307C7.9295 3.307 7.146 4.0905 7.146 5.057C7.146 6.0235 7.9295 6.807 8.896 6.807Z" />
    <path
      d="M8.896 20.807C9.86249 20.807 10.646 20.0235 10.646 19.057C10.646 18.0905 9.86249 17.307 8.896 17.307C7.9295 17.307 7.146 18.0905 7.146 19.057C7.146 20.0235 7.9295 20.807 8.896 20.807Z" />
    <path
      d="M15.179 13.807C16.1455 13.807 16.929 13.0235 16.929 12.057C16.929 11.0905 16.1455 10.307 15.179 10.307C14.2125 10.307 13.429 11.0905 13.429 12.057C13.429 13.0235 14.2125 13.807 15.179 13.807Z" />
    <path
      d="M15.179 6.807C16.1455 6.807 16.929 6.0235 16.929 5.057C16.929 4.0905 16.1455 3.307 15.179 3.307C14.2125 3.307 13.429 4.0905 13.429 5.057C13.429 6.0235 14.2125 6.807 15.179 6.807Z" />
    <path
      d="M15.179 20.807C16.1455 20.807 16.929 20.0235 16.929 19.057C16.929 18.0905 16.1455 17.307 15.179 17.307C14.2125 17.307 13.429 18.0905 13.429 19.057C13.429 20.0235 14.2125 20.807 15.179 20.807Z" />
  </g>
</svg>
