<svg width="36" height="36" viewBox="0 0 36 36" fill="none" xmlns="http://www.w3.org/2000/svg">
<path d="M28.581 25.0785H14.289L14.844 24.192H27.888C29.5905 24.192 30.975 22.8075 30.975 21.105C30.975 19.4025 29.5905 18.018 27.888 18.018H8.14649C6.44399 18.018 5.05949 19.4025 5.05949 21.105C5.05949 22.8075 6.44399 24.192 8.14649 24.192H8.51549L9.07349 25.0785H7.45499C6.36899 25.0785 5.48699 25.962 5.48699 27.0465V29.5485C5.48699 30.6345 6.37049 31.5165 7.45499 31.5165H28.581C29.667 31.5165 30.549 30.633 30.549 29.5485V27.0465C30.549 25.962 29.6655 25.0785 28.581 25.0785ZM8.14649 21.942C7.68449 21.942 7.30949 21.567 7.30949 21.105C7.30949 20.643 7.68449 20.2665 8.14649 20.2665H27.888C28.35 20.2665 28.725 20.643 28.725 21.105C28.725 21.567 28.35 21.942 27.888 21.942H14.4075C13.9695 21.942 13.5585 22.1355 13.278 22.4715L11.6865 25.008L10.08 22.47C9.79949 22.134 9.38849 21.942 8.95049 21.942H8.14649ZM28.299 29.268H7.73549V27.3285H10.491L10.5135 27.363L10.6095 27.4935C10.881 27.8115 11.274 27.993 11.6925 27.993C11.6925 27.993 11.6955 27.993 11.6985 27.993C12.117 27.9915 12.5115 27.807 12.7815 27.4845L12.879 27.3285H28.299V29.268Z" fill="currentColor"/>
<path d="M7.49549 17.1345H28.5405C29.0925 17.1345 29.625 16.902 30.0015 16.494C30.3675 16.098 30.552 15.5655 30.5115 15.036C30.027 8.847 24.8895 4.524 18.018 4.524C11.148 4.524 6.01199 8.847 5.52599 15.0375C5.48399 15.5685 5.67149 16.0995 6.03749 16.4955C6.41099 16.902 6.94349 17.1345 7.49549 17.1345ZM18.0165 6.7755C23.5365 6.7755 27.6885 10.092 28.2345 14.886H7.79999C8.34449 10.0935 12.4965 6.7755 18.0165 6.7755Z" fill="currentColor"/>
</svg>
