<svg width="1em" height="1em" viewBox="0 0 36 36" fill="none" xmlns="http://www.w3.org/2000/svg">
  <path
    d="M21.195 26.22H14.805C14.5066 26.22 14.2205 26.3385 14.0095 26.5495C13.7985 26.7605 13.68 27.0466 13.68 27.345C13.68 27.6434 13.7985 27.9295 14.0095 28.1405C14.2205 28.3515 14.5066 28.47 14.805 28.47H21.195C21.4934 28.47 21.7795 28.3515 21.9905 28.1405C22.2015 27.9295 22.32 27.6434 22.32 27.345C22.32 27.0466 22.2015 26.7605 21.9905 26.5495C21.7795 26.3385 21.4934 26.22 21.195 26.22Z"
    fill="currentColor" />
  <path
    d="M21.195 29.25H14.805C14.5066 29.25 14.2205 29.3685 14.0095 29.5795C13.7985 29.7905 13.68 30.0766 13.68 30.375C13.68 30.6734 13.7985 30.9595 14.0095 31.1705C14.2205 31.3815 14.5066 31.5 14.805 31.5H21.195C21.4934 31.5 21.7795 31.3815 21.9905 31.1705C22.2015 30.9595 22.32 30.6734 22.32 30.375C22.32 30.0766 22.2015 29.7905 21.9905 29.5795C21.7795 29.3685 21.4934 29.25 21.195 29.25Z"
    fill="currentColor" />
  <path
    d="M24.15 7.14C22.6942 5.62389 20.7387 4.6861 18.645 4.5H18C16.8332 4.51077 15.6824 4.77164 14.625 5.265C12.7299 6.13933 11.19 7.63429 10.2599 9.50266C9.32981 11.371 9.06526 13.5009 9.51 15.54C9.95882 17.4373 11.0116 19.1376 12.51 20.385C13.0488 20.8814 13.3987 21.5494 13.5 22.275L13.59 22.785C13.59 23.16 13.695 23.82 13.725 24.285C13.7401 24.5305 13.8474 24.7612 14.0255 24.9309C14.2035 25.1005 14.4391 25.1967 14.685 25.2H21.27C21.5246 25.2 21.7688 25.0989 21.9488 24.9188C22.1289 24.7388 22.23 24.4946 22.23 24.24C22.2295 23.7362 22.2797 23.2337 22.38 22.74C22.38 22.635 22.38 22.53 22.38 22.395V22.155C22.5933 21.373 23.0505 20.6794 23.685 20.175C25.4362 18.6482 26.5143 16.4921 26.685 14.175C26.7826 12.8899 26.6072 11.5987 26.1703 10.3862C25.7334 9.17375 25.0449 8.06745 24.15 7.14ZM22.17 18.645C21.3061 19.3873 20.6714 20.3603 20.34 21.45C20.231 21.8925 20.1656 22.3447 20.145 22.8C20.145 22.8 20.145 22.935 20.01 22.95H15.87C15.8573 22.1443 15.6713 21.3508 15.3244 20.6234C14.9776 19.8961 14.4781 19.252 13.86 18.735C12.702 17.7462 11.9052 16.4008 11.595 14.91C11.406 14.0536 11.3896 13.1682 11.5467 12.3054C11.7038 11.4426 12.0313 10.6198 12.51 9.885C12.9906 9.12558 13.6173 8.46928 14.3538 7.95426C15.0903 7.43924 15.9218 7.07577 16.8 6.885C17.1946 6.80234 17.5969 6.76211 18 6.765C19.4275 6.78456 20.8112 7.2613 21.9478 8.12523C23.0844 8.98917 23.9141 10.1948 24.315 11.565C24.7056 12.8244 24.71 14.1719 24.3277 15.4338C23.9454 16.6957 23.1939 17.8142 22.17 18.645Z"
    fill="currentColor" />
  <path
    d="M18 8.1C17.3324 8.09207 16.6698 8.21647 16.0506 8.46602C15.4313 8.71556 14.8676 9.08531 14.392 9.55391C13.9165 10.0225 13.5384 10.5807 13.2798 11.1962C13.0211 11.8117 12.8869 12.4723 12.885 13.14C12.885 13.4384 13.0035 13.7245 13.2145 13.9355C13.4255 14.1465 13.7116 14.265 14.01 14.265C14.3084 14.265 14.5945 14.1465 14.8055 13.9355C15.0165 13.7245 15.135 13.4384 15.135 13.14C15.1349 12.7672 15.2094 12.3982 15.3543 12.0547C15.4992 11.7112 15.7114 11.4003 15.9785 11.1402C16.2456 10.8801 16.5621 10.6762 16.9093 10.5405C17.2565 10.4047 17.6273 10.34 18 10.35C18.2984 10.35 18.5845 10.2315 18.7955 10.0205C19.0065 9.80951 19.125 9.52336 19.125 9.225C19.125 8.92663 19.0065 8.64048 18.7955 8.4295C18.5845 8.21852 18.2984 8.1 18 8.1Z"
    fill="currentColor" />
</svg>
