<svg width="36" height="36" viewBox="0 0 36 36" xmlns="http://www.w3.org/2000/svg">
<path d="M14.004 19.346a1.35 1.35 0 0 1-.634-.146 2.164 2.164 0 0 1-.536-.39l-5.41-6.774v5.848c0 .39-.146.78-.438 1.024a1.403 1.403 0 0 1-1.024.438c-.39 0-.78-.146-1.023-.438a1.403 1.403 0 0 1-.439-1.024V7.844c0-.292.097-.584.244-.877.195-.243.438-.438.73-.536a1.79 1.79 0 0 1 .878-.049c.292.098.536.244.731.488l6.97 8.626 6.92-8.626c.244-.293.585-.488.975-.536.39-.049.78.048 1.072.292.146.098.292.293.39.439.097.146.146.34.195.536 0 .195 0 .39-.05.585-.048.195-.145.34-.243.487l-8.139 10.186c-.146.195-.292.292-.536.39-.195.097-.39.097-.633.097ZM14.978 29.678c-.34 0-.633-.097-.926-.292a1.506 1.506 0 0 1-.536-.975c-.048-.39.049-.78.341-1.072l8.09-10.04c.244-.292.585-.487.975-.487.39-.049.78.098 1.073.341.292.244.487.585.536.975.048.39-.05.78-.293 1.072l-8.09 9.942a1.523 1.523 0 0 1-.536.439c-.146.049-.39.097-.634.097ZM30.038 29.678h-6.774c-.39 0-.78-.146-1.024-.438a1.403 1.403 0 0 1-.439-1.024c0-.39.147-.78.44-1.023a1.403 1.403 0 0 1 1.023-.439h6.774c.39 0 .78.146 1.023.439.293.292.439.633.439 1.023 0 .39-.146.78-.439 1.024-.292.244-.633.438-1.023.438Z" fill="currentColor"/>
</svg>
