<svg width="1em" height="1em" viewBox="0 0 36 36" fill="none" xmlns="http://www.w3.org/2000/svg">
  <path
    d="M14.1225 19.3395C13.8885 19.3395 13.701 19.293 13.5135 19.1985C13.326 19.104 13.1385 18.9645 12.9975 18.8235L7.791 12.3045V17.9325C7.791 18.3075 7.65001 18.6825 7.36951 18.918C7.08751 19.2 6.7605 19.3395 6.384 19.3395C6.009 19.3395 5.634 19.1985 5.3985 18.918C5.1165 18.636 4.97701 18.309 4.97701 17.9325V8.27099C4.97701 7.98899 5.0715 7.70849 5.211 7.42649C5.3985 7.19249 5.63251 7.00499 5.91451 6.91049C6.1965 6.81599 6.477 6.81599 6.759 6.86399C7.0395 6.95849 7.275 7.09799 7.4625 7.33349L14.169 15.6345L20.829 7.33349C21.063 7.05149 21.3915 6.86399 21.7665 6.81749C22.1415 6.77099 22.5165 6.86399 22.7985 7.09949C22.9395 7.19399 23.0805 7.38149 23.1735 7.52099C23.2665 7.66049 23.3145 7.84949 23.361 8.03699C23.361 8.22449 23.361 8.41199 23.3145 8.59949C23.268 8.78699 23.1735 8.92799 23.0805 9.06899L15.2475 18.825C15.1065 19.0125 14.9655 19.107 14.7315 19.2C14.544 19.293 14.3565 19.3395 14.1225 19.3395Z"
    fill="currentColor" />
  <path
    d="M29.553 29.283H23.034C22.659 29.283 22.284 29.142 22.0485 28.8615C21.7665 28.5795 21.627 28.2525 21.627 27.876C21.627 27.501 21.768 27.126 22.0485 26.8905C22.3305 26.6085 22.6575 26.469 23.034 26.469H29.553C29.928 26.469 30.303 26.61 30.5385 26.8905C30.8205 27.1725 30.96 27.4995 30.96 27.876C30.96 28.251 30.819 28.626 30.5385 28.8615C30.258 29.097 29.928 29.283 29.553 29.283Z"
    fill="currentColor" />
  <path
    d="M15.06 29.283C14.7315 29.283 14.451 29.1885 14.169 29.001C13.887 28.767 13.6995 28.4385 13.653 28.0635C13.6065 27.6885 13.6995 27.3135 13.9815 27.0315L21.768 17.37C22.002 17.088 22.3305 16.9005 22.7055 16.9005C23.0805 16.854 23.4555 16.995 23.7375 17.229C24.0195 17.463 24.207 17.7915 24.2535 18.1665C24.3 18.5415 24.207 18.9165 23.9715 19.1985L16.185 28.719C16.044 28.9065 15.8565 29.0475 15.669 29.1405C15.5295 29.2365 15.2955 29.283 15.06 29.283Z"
    fill="currentColor" />
</svg>
