<svg width="32" height="32" viewBox="0 0 24 24" xmlns="http://www.w3.org/2000/svg">
  <path
    d="m18.2 6-4.3-2.3c-1.1-.6-2.4-.6-3.5-.1L5.9 6.1c-1.3.7-2.1 2-2.1 3.5v5c0 1.3.7 2.5 1.7 3.3.1.1.2.1.3.2l4.3 2.3c.6.3 1.2.5 1.9.5s1.3-.2 1.9-.5l4.3-2.3c1.2-.7 2-1.9 2.1-3.3V9.7c0-1.6-.8-3-2.1-3.7zm-5-.9 4.3 2.3c.8.4 1.3 1.3 1.3 2.2v2c-.2-.2-.4-.3-.7-.4L13.8 9c-.6-.3-1.2-.4-1.8-.4s-1.2.1-1.7.4h-.2V6.9c0-.8.4-1.5 1-2 .7-.2 1.5-.2 2.1.2zm-.5 9-.6.3-.7-.4c-.8-.4-1.3-1.3-1.3-2.1v-1.1l.8-.4c.7-.3 1.5-.3 2.2 0l.8.4V12c.1.8-.4 1.6-1.2 2.1zm-6.3 2.4c-.7-.5-1.1-1.2-1.1-2v-5c0-.9.5-1.7 1.3-2.2l2.1-1.1c0 .2-.1.4-.1.7v4.8c0 1.4.7 2.7 1.9 3.4l-2.1 1.1c-.6.5-1.3.6-2 .3zm11.1.2L13.2 19c-.7.4-1.6.4-2.3 0l-2.1-1.1c.1 0 .2-.1.3-.2l4.3-2.3c1.3-.7 2.1-2 2.1-3.5v-.4l2 1c.8.4 1.3 1.2 1.3 2.1-.1.8-.5 1.6-1.3 2.1z"
    fill="currentColor" />
</svg>
