<svg xmlns="http://www.w3.org/2000/svg" width="32" height="32" viewBox="0 0 24 24">
  <g fill="currentColor">
    <path
      d="M13.25 10.48h-6a.793.793 0 0 0-.54.22.769.769 0 0 0 0 1.06.793.793 0 0 0 .54.22h6a.79.79 0 0 0 .53-.22.752.752 0 0 0 0-1.06.79.79 0 0 0-.53-.22zM13.25 7.1h-6a.789.789 0 0 0-.54.22.769.769 0 0 0 0 1.06c.145.14.339.218.54.22h6a.79.79 0 0 0 .53-.22.752.752 0 0 0 0-1.06.79.79 0 0 0-.53-.22z" />
    <path
      d="M18.7 13.86H17V5.71c0-.729-.29-1.429-.805-1.945a2.755 2.755 0 0 0-1.945-.805h-8a2.79 2.79 0 0 0-2 .8 2.745 2.745 0 0 0-.73 1.95v14.75h13.95a2.749 2.749 0 0 0 2.75-2.75v-3.89l-1.52.04zm-3.2 5.1H5V5.71a1.29 1.29 0 0 1 .36-.89 1.27 1.27 0 0 1 .89-.36h8c.329.002.644.131.88.36a1.3 1.3 0 0 1 .37.89v13.25zm3.2-1.25a1.252 1.252 0 0 1-1.25 1.25H17v-3.64h1.7v2.39z" />
  </g>
</svg>
