<svg width="1em" height="1em" viewBox="0 0 36 36" fill="none" xmlns="http://www.w3.org/2000/svg">
  <path fill-rule="evenodd" clip-rule="evenodd"
    d="M20.4 25.875H21.585C23.1432 25.878 24.6672 25.4187 25.9642 24.5551C27.2612 23.6916 28.2729 22.4628 28.8712 21.0241C29.4696 19.5854 29.6277 18.0015 29.3255 16.4729C29.0233 14.9443 28.2745 13.5397 27.1738 12.4369C26.073 11.334 24.6699 10.5825 23.1419 10.2775C21.6139 9.97238 20.0297 10.1274 18.5898 10.723C17.15 11.3186 15.9192 12.328 15.0532 13.6234C14.1872 14.9187 13.725 16.4419 13.725 18C13.7205 19.0763 13.938 20.142 14.3639 21.1304C14.7897 22.1189 15.4148 23.0089 16.2 23.745L14.82 25.245C13.7718 24.2621 12.9497 23.063 12.4108 21.7309C11.8719 20.3988 11.629 18.9654 11.6989 17.5301C11.7688 16.0948 12.1499 14.6918 12.8157 13.4184C13.4815 12.1449 14.4162 11.0315 15.555 10.155H14.37C12.5449 10.1612 10.7791 10.8036 9.37655 11.9715C7.97404 13.1394 7.02264 14.7598 6.68615 16.5537C6.34967 18.3475 6.64916 20.2025 7.53307 21.7993C8.41697 23.3961 9.82997 24.6348 11.5288 25.302C13.2276 25.9692 15.1058 26.0232 16.8402 25.4547C18.5745 24.8863 20.0563 23.7309 21.0306 22.1875C22.0048 20.6442 22.4104 18.8094 22.1776 16.9992C21.9448 15.189 21.0881 13.5166 19.755 12.27L21.135 10.77C22.1288 11.6939 22.9215 12.8128 23.4635 14.0567C24.0055 15.3007 24.2851 16.6431 24.285 18C24.2985 19.525 23.954 21.0319 23.2792 22.3996C22.6045 23.7673 21.6183 24.9577 20.4 25.875ZM21.585 27.915H14.415C11.7854 27.915 9.26346 26.8704 7.40404 25.011C5.54461 23.1516 4.5 20.6296 4.5 18C4.5 15.3704 5.54461 12.8485 7.40404 10.9891C9.26346 9.12964 11.7854 8.08502 14.415 8.08502H21.585C24.2146 8.08502 26.7365 9.12964 28.596 10.9891C30.4554 12.8485 31.5 15.3704 31.5 18C31.5 20.6296 30.4554 23.1516 28.596 25.011C26.7365 26.8704 24.2146 27.915 21.585 27.915Z"
    fill="currentColor" />
</svg>
