<svg width="36" height="36" viewBox="0 0 36 36" fill="none" xmlns="http://www.w3.org/2000/svg">
<path d="M28.5 28.125H7.5C6.80502 28.1211 6.13963 27.8432 5.6482 27.3518C5.15676 26.8604 4.87894 26.195 4.875 25.5V21.75C4.87888 21.4528 4.99866 21.1689 5.2088 20.9588C5.41894 20.7487 5.70284 20.6289 6 20.625C6.69619 20.625 7.36387 20.3484 7.85616 19.8562C8.34844 19.3639 8.625 18.6962 8.625 18C8.625 17.3038 8.34844 16.6361 7.85616 16.1438C7.36387 15.6516 6.69619 15.375 6 15.375C5.70284 15.3711 5.41894 15.2513 5.2088 15.0412C4.99866 14.8311 4.87888 14.5472 4.875 14.25V10.5C4.87894 9.80502 5.15676 9.13963 5.6482 8.6482C6.13963 8.15676 6.80502 7.87894 7.5 7.875H28.5C29.195 7.87894 29.8604 8.15676 30.3518 8.6482C30.8432 9.13963 31.1211 9.80502 31.125 10.5V14.25C31.1211 14.5472 31.0013 14.8311 30.7912 15.0412C30.5811 15.2513 30.2972 15.3711 30 15.375C29.3038 15.375 28.6361 15.6516 28.1438 16.1438C27.6516 16.6361 27.375 17.3038 27.375 18C27.375 18.6962 27.6516 19.3639 28.1438 19.8562C28.6361 20.3484 29.3038 20.625 30 20.625C30.2972 20.6289 30.5811 20.7487 30.7912 20.9588C31.0013 21.1689 31.1211 21.4528 31.125 21.75V25.5C31.1211 26.195 30.8432 26.8604 30.3518 27.3518C29.8604 27.8432 29.195 28.1211 28.5 28.125V28.125ZM7.125 22.74V25.5C7.125 25.5995 7.16451 25.6948 7.23483 25.7652C7.30516 25.8355 7.40054 25.875 7.5 25.875H28.5C28.5995 25.875 28.6948 25.8355 28.7652 25.7652C28.8355 25.6948 28.875 25.5995 28.875 25.5V22.74C27.8105 22.4841 26.8632 21.8774 26.1855 21.0176C25.5078 20.1577 25.1393 19.0948 25.1393 18C25.1393 16.9052 25.5078 15.8423 26.1855 14.9824C26.8632 14.1226 27.8105 13.5159 28.875 13.26V10.5C28.875 10.4005 28.8355 10.3052 28.7652 10.2348C28.6948 10.1645 28.5995 10.125 28.5 10.125H7.5C7.40054 10.125 7.30516 10.1645 7.23483 10.2348C7.16451 10.3052 7.125 10.4005 7.125 10.5V13.26C8.18948 13.5159 9.13685 14.1226 9.81451 14.9824C10.4922 15.8423 10.8607 16.9052 10.8607 18C10.8607 19.0948 10.4922 20.1577 9.81451 21.0176C9.13685 21.8774 8.18948 22.4841 7.125 22.74V22.74Z" fill="currentColor"/>
</svg>
