<svg width="1em" height="1em" viewBox="0 0 36 36" fill="none" xmlns="http://www.w3.org/2000/svg">
  <path
    d="M19.125 17.82V10.5C19.125 10.2016 19.0065 9.91548 18.7955 9.7045C18.5845 9.49353 18.2984 9.375 18 9.375C17.7016 9.375 17.4155 9.49353 17.2045 9.7045C16.9935 9.91548 16.875 10.2016 16.875 10.5V18.75L20.715 22.59C20.8189 22.6952 20.9427 22.7785 21.0792 22.8352C21.2157 22.8919 21.3622 22.9207 21.51 22.92C21.6579 22.9216 21.8046 22.8931 21.9413 22.8364C22.0779 22.7797 22.2017 22.6959 22.305 22.59C22.4111 22.4866 22.4955 22.363 22.5531 22.2264C22.6107 22.0899 22.6404 21.9432 22.6404 21.795C22.6404 21.6468 22.6107 21.5001 22.5531 21.3636C22.4955 21.227 22.4111 21.1034 22.305 21L19.125 17.82Z"
    fill="currentColor" />
  <path
    d="M29.22 10.5C27.4198 7.8096 24.7128 5.85561 21.5924 4.9942C18.472 4.13279 15.1459 4.42132 12.2204 5.80719C9.29495 7.19307 6.96486 9.58401 5.65484 12.5442C4.34482 15.5045 4.14211 18.8368 5.08366 21.934C6.0252 25.0312 8.04831 27.687 10.7842 29.4172C13.5201 31.1475 16.7867 31.837 19.9885 31.3602C23.1904 30.8834 26.1143 29.2719 28.2273 26.8195C30.3403 24.3672 31.5018 21.2372 31.5 18C31.4985 15.3295 30.7051 12.7195 29.22 10.5ZM27.36 24.255C26.1164 26.0999 24.3588 27.5393 22.305 28.395C20.2492 29.247 17.9868 29.4702 15.8041 29.0362C13.6214 28.6023 11.6165 27.5307 10.0429 25.9571C8.46927 24.3835 7.39772 22.3786 6.96378 20.1959C6.52983 18.0132 6.75298 15.7509 7.605 13.695C8.45321 11.6367 9.89455 9.87733 11.7456 8.64061C13.5967 7.40389 15.7738 6.74579 18 6.75002C20.9825 6.75399 23.8416 7.94053 25.9506 10.0495C28.0595 12.1584 29.246 15.0176 29.25 18C29.2474 20.2253 28.5901 22.4006 27.36 24.255Z"
    fill="currentColor" />
</svg>
