<svg width="1em" height="1em" viewBox="0 0 36 36" fill="none" xmlns="http://www.w3.org/2000/svg">
  <path
    d="M30.345 8.655C30.1045 8.40923 29.8175 8.21371 29.5008 8.0798C29.1841 7.9459 28.8439 7.87628 28.5 7.875H7.5C6.80742 7.88658 6.14645 8.16686 5.65665 8.65665C5.16686 9.14645 4.88658 9.80742 4.875 10.5V25.5C4.88658 26.1926 5.16686 26.8536 5.65665 27.3433C6.14645 27.8331 6.80742 28.1134 7.5 28.125H28.5C29.1926 28.1134 29.8536 27.8331 30.3433 27.3433C30.8331 26.8536 31.1134 26.1926 31.125 25.5V10.5C31.1237 10.1561 31.0541 9.81594 30.9202 9.49921C30.7863 9.18247 30.5908 8.89551 30.345 8.655ZM28.875 25.5C28.8771 25.5498 28.8689 25.5995 28.8508 25.646C28.8327 25.6924 28.8051 25.7346 28.7699 25.7699C28.7346 25.8051 28.6924 25.8327 28.646 25.8508C28.5995 25.8689 28.5498 25.8771 28.5 25.875H7.5C7.45019 25.8771 7.40048 25.8689 7.35402 25.8508C7.30756 25.8327 7.26537 25.8051 7.23012 25.7699C7.19486 25.7346 7.16731 25.6924 7.14922 25.646C7.13112 25.5995 7.12288 25.5498 7.125 25.5V10.5C7.12288 10.4502 7.13112 10.4005 7.14922 10.354C7.16731 10.3076 7.19486 10.2654 7.23012 10.2301C7.26537 10.1949 7.30756 10.1673 7.35402 10.1492C7.40048 10.1311 7.45019 10.1229 7.5 10.125H28.5C28.5498 10.1229 28.5995 10.1311 28.646 10.1492C28.6924 10.1673 28.7346 10.1949 28.7699 10.2301C28.8051 10.2654 28.8327 10.3076 28.8508 10.354C28.8689 10.4005 28.8771 10.4502 28.875 10.5V25.5Z"
    fill="currentColor" />
  <path
    d="M15 12.48H10.5C10.2016 12.48 9.91548 12.5985 9.7045 12.8095C9.49353 13.0205 9.375 13.3066 9.375 13.605C9.375 13.9033 9.49353 14.1895 9.7045 14.4005C9.91548 14.6115 10.2016 14.73 10.5 14.73H15C15.2984 14.73 15.5845 14.6115 15.7955 14.4005C16.0065 14.1895 16.125 13.9033 16.125 13.605C16.125 13.3066 16.0065 13.0205 15.7955 12.8095C15.5845 12.5985 15.2984 12.48 15 12.48Z"
    fill="currentColor" />
  <path
    d="M15 21.27H10.5C10.2016 21.27 9.91548 21.3885 9.7045 21.5995C9.49353 21.8105 9.375 22.0967 9.375 22.395C9.375 22.6934 9.49353 22.9795 9.7045 23.1905C9.91548 23.4015 10.2016 23.52 10.5 23.52H15C15.2984 23.52 15.5845 23.4015 15.7955 23.1905C16.0065 22.9795 16.125 22.6934 16.125 22.395C16.125 22.0967 16.0065 21.8105 15.7955 21.5995C15.5845 21.3885 15.2984 21.27 15 21.27Z"
    fill="currentColor" />
  <path
    d="M10.5 19.125H13.5C13.7984 19.125 14.0845 19.0065 14.2955 18.7955C14.5065 18.5845 14.625 18.2984 14.625 18C14.625 17.7016 14.5065 17.4155 14.2955 17.2045C14.0845 16.9935 13.7984 16.875 13.5 16.875H10.5C10.2016 16.875 9.91548 16.9935 9.7045 17.2045C9.49353 17.4155 9.375 17.7016 9.375 18C9.375 18.2984 9.49353 18.5845 9.7045 18.7955C9.91548 19.0065 10.2016 19.125 10.5 19.125Z"
    fill="currentColor" />
  <path
    d="M24.3 18.495H20.91C20.8369 18.4949 20.7666 18.5229 20.7136 18.5731C20.6606 18.6233 20.6288 18.692 20.625 18.765V24.09C20.625 24.09 20.625 24.165 20.625 24.195C20.6342 24.2129 20.6469 24.2288 20.6624 24.2416C20.6778 24.2545 20.6957 24.2642 20.715 24.27C20.7489 24.2826 20.7861 24.2826 20.82 24.27C20.8586 24.2851 20.9014 24.2851 20.94 24.27L22.56 23.145L24.165 24.27C24.2091 24.2829 24.2559 24.2829 24.3 24.27H24.405L24.495 24.195C24.5002 24.1552 24.5002 24.1148 24.495 24.075V18.765C24.4974 18.7047 24.4794 18.6453 24.4441 18.5963C24.4087 18.5474 24.358 18.5117 24.3 18.495Z"
    fill="currentColor" />
  <path
    d="M25.5 13.74H25.38L23.625 13.5L22.815 11.865C22.797 11.825 22.765 11.793 22.725 11.775H22.605L22.5 11.7C22.46 11.718 22.428 11.75 22.41 11.79L21.57 13.5L19.77 13.755H19.65C19.6431 13.7896 19.6431 13.8253 19.65 13.86C19.6351 13.9037 19.6351 13.9512 19.65 13.995C19.6363 14.0338 19.6363 14.0761 19.65 14.115L20.955 15.39L20.64 17.175C20.6327 17.2197 20.6327 17.2652 20.64 17.31C20.6564 17.3585 20.6879 17.4006 20.73 17.43H20.85H20.985L22.605 16.575L24.21 17.43H24.33C24.3741 17.4429 24.4209 17.4429 24.465 17.43C24.5031 17.3967 24.5338 17.3558 24.555 17.31C24.5623 17.2652 24.5623 17.2197 24.555 17.175L24.24 15.39L25.5 14.1C25.5334 14.0658 25.559 14.0249 25.575 13.98C25.5823 13.9352 25.5823 13.8897 25.575 13.845C25.5638 13.8019 25.5371 13.7645 25.5 13.74Z"
    fill="currentColor" />
</svg>
