<svg width="60" height="60" viewBox="0 0 60 60" fill="none" xmlns="http://www.w3.org/2000/svg">
<rect width="60" height="60" rx="10" fill="url(#paint0_linear_10_6535)"/>
<path d="M31.875 29.7V17.5C31.875 17.0027 31.6775 16.5258 31.3258 16.1742C30.9742 15.8225 30.4973 15.625 30 15.625C29.5027 15.625 29.0258 15.8225 28.6742 16.1742C28.3225 16.5258 28.125 17.0027 28.125 17.5V31.25L34.525 37.65C34.6981 37.8253 34.9045 37.9642 35.132 38.0587C35.3595 38.1531 35.6037 38.2012 35.85 38.2C36.0966 38.2026 36.3411 38.1552 36.5688 38.0607C36.7965 37.9661 37.0028 37.8264 37.175 37.65C37.3519 37.4776 37.4925 37.2716 37.5885 37.044C37.6845 36.8165 37.7339 36.572 37.7339 36.325C37.7339 36.078 37.6845 35.8335 37.5885 35.606C37.4925 35.3784 37.3519 35.1724 37.175 35L31.875 29.7Z" fill="white"/>
<path d="M48.7 17.4999C45.6997 13.0159 41.188 9.75927 35.9873 8.32359C30.7866 6.88791 25.2432 7.36879 20.3674 9.67857C15.4916 11.9884 11.6081 15.9733 9.42473 20.907C7.24137 25.8407 6.90352 31.3947 8.47276 36.5566C10.042 41.7186 13.4138 46.1448 17.9737 49.0286C22.5336 51.9124 27.9779 53.0616 33.3142 52.2669C38.6506 51.4722 43.5238 48.7864 47.0455 44.6991C50.5672 40.6118 52.503 35.3952 52.5 29.9999C52.4976 25.5491 51.1751 21.1991 48.7 17.4999ZM45.6 40.4249C43.5273 43.4997 40.598 45.8988 37.175 47.3249C33.7486 48.745 29.978 49.1169 26.3402 48.3937C22.7024 47.6704 19.3608 45.8845 16.7381 43.2618C14.1155 40.6392 12.3295 37.2976 11.6063 33.6598C10.8831 30.0219 11.255 26.2514 12.675 22.8249C14.0887 19.3945 16.4909 16.4621 19.576 14.4009C22.6611 12.3397 26.2897 11.2429 30 11.2499C34.9708 11.2566 39.7361 13.2341 43.251 16.749C46.7658 20.2639 48.7434 25.0292 48.75 29.9999C48.7456 33.7087 47.6501 37.3343 45.6 40.4249Z" fill="white"/>
<defs>
<linearGradient id="paint0_linear_10_6535" x1="0.416666" y1="7.09353e-07" x2="71.9931" y2="36.4478" gradientUnits="userSpaceOnUse">
<stop stop-color="#119C8D"/>
<stop offset="0.859375" stop-color="#326FD1"/>
</linearGradient>
</defs>
</svg>
