<svg width="60" height="60" viewBox="0 0 60 60" fill="none" xmlns="http://www.w3.org/2000/svg">
<rect width="60" height="60" rx="10" fill="#D9D9D9"/>
<rect width="60" height="60" rx="10" fill="url(#paint0_linear_6_1168)"/>
<path d="M40.23 43.5C39.4452 43.3006 38.7456 42.8535 38.235 42.225L29.88 33.87L21.18 42.57C20.8092 42.9799 20.3228 43.2675 19.785 43.395L19.395 43.5H18.99H18.885C18.5438 43.4692 18.2124 43.3696 17.9107 43.2072C17.6091 43.0448 17.3435 42.8229 17.13 42.555C16.7982 42.1438 16.5808 41.6522 16.5 41.13V40.59C16.6615 39.7636 17.1008 39.0173 17.745 38.475L22.965 33.27L25.395 30.84L23.715 29.145L19.755 25.185C19.1636 24.6059 18.7015 23.9083 18.399 23.1379C18.0966 22.3674 17.9606 21.5417 18 20.715C17.868 19.4865 18.022 18.2441 18.45 17.085C18.63 16.71 18.75 16.5 19.5 16.5C20.0338 16.5951 20.5112 16.8901 20.835 17.325C23.16 19.635 25.5 21.93 27.765 24.24L29.88 26.355C30.3354 25.9392 30.6144 25.365 30.66 24.75C30.7455 23.7667 31.1884 22.8488 31.905 22.17L37.245 16.83C37.4559 16.6193 37.7419 16.501 38.04 16.501C38.3381 16.501 38.6241 16.6193 38.835 16.83C39.0457 17.0409 39.164 17.3269 39.164 17.625C39.164 17.9231 39.0457 18.2091 38.835 18.42L34.995 22.26L35.565 22.83L39.405 18.99C39.5084 18.8839 39.632 18.7995 39.7686 18.7419C39.9051 18.6843 40.0518 18.6546 40.2 18.6546C40.3482 18.6546 40.4949 18.6843 40.6314 18.7419C40.768 18.7995 40.8916 18.8839 40.995 18.99C41.1826 19.1947 41.2867 19.4623 41.2867 19.74C41.2867 20.0177 41.1826 20.2853 40.995 20.49L37.125 24.435L37.725 25.02L41.565 21.165C41.7759 20.9543 42.0619 20.836 42.36 20.836C42.6581 20.836 42.9441 20.9543 43.155 21.165C43.2611 21.2684 43.3455 21.392 43.4031 21.5286C43.4607 21.6651 43.4904 21.8118 43.4904 21.96C43.4904 22.1082 43.4607 22.2549 43.4031 22.3914C43.3455 22.528 43.2611 22.6516 43.155 22.755L38.055 27.885C37.2857 28.7529 36.2109 29.2903 35.055 29.385C34.4762 29.4293 33.9377 29.6985 33.555 30.135L42.315 38.88C42.6948 39.2206 42.9677 39.664 43.1008 40.1565C43.2339 40.6489 43.2215 41.1694 43.065 41.655C42.9442 42.1062 42.7032 42.5161 42.3677 42.841C42.0322 43.1659 41.6148 43.3937 41.16 43.5H40.935H40.23ZM40.23 41.04L40.365 41.175C40.4362 41.2223 40.5195 41.2483 40.605 41.25C40.6962 41.2476 40.7837 41.2132 40.8523 41.1529C40.9208 41.0926 40.966 41.0102 40.98 40.92C40.98 40.785 40.98 40.68 40.77 40.47L32.04 31.74L31.485 32.295L40.23 41.04ZM18.975 40.5C18.9221 40.548 18.8766 40.6036 18.84 40.665C18.8058 40.7243 18.7877 40.7915 18.7877 40.86C18.7877 40.9285 18.8058 40.9957 18.84 41.055C18.8728 41.115 18.9203 41.1658 18.978 41.2025C19.0357 41.2392 19.1017 41.2607 19.17 41.265C19.2521 41.26 19.3321 41.2373 19.4046 41.1985C19.4771 41.1597 19.5404 41.1056 19.59 41.04L27.54 33L27 32.46L18.975 40.5ZM20.295 20.07C20.2579 20.3785 20.2429 20.6893 20.25 21C20.2475 21.4747 20.3404 21.9451 20.5234 22.3832C20.7064 22.8213 20.9756 23.2181 21.315 23.55C23.195 25.41 25.09 27.28 27 29.16L29.19 31.335L30.405 30.12L20.295 20.07ZM32.07 28.5C32.8699 27.6919 33.9359 27.2016 35.07 27.12C35.4214 27.0777 35.7487 26.9193 36 26.67L33.33 24C33.0938 24.2687 32.9471 24.6042 32.91 24.96C32.8468 26.0987 32.3535 27.171 31.53 27.96L32.07 28.5Z" fill="#071426"/>
<defs>
<linearGradient id="paint0_linear_6_1168" x1="0.416666" y1="7.09353e-07" x2="71.9931" y2="36.4478" gradientUnits="userSpaceOnUse">
<stop stop-color="#F2D066"/>
<stop offset="0.859375" stop-color="#F38EC0"/>
</linearGradient>
</defs>
</svg>
