<svg width="60" height="60" viewBox="0 0 60 60" fill="none" xmlns="http://www.w3.org/2000/svg">
<rect width="60" height="60" rx="10" fill="url(#paint0_linear_6_17166)"/>
<path fill-rule="evenodd" clip-rule="evenodd" d="M34.5 43.125H36.475C39.0719 43.1299 41.612 42.3644 43.7737 40.9252C45.9353 39.486 47.6215 37.4379 48.6187 35.04C49.616 32.6422 49.8795 30.0024 49.3758 27.4548C48.8722 24.9071 47.6242 22.5661 45.7896 20.7281C43.9551 18.89 41.6165 17.6375 39.0698 17.129C36.5231 16.6206 33.8828 16.879 31.4831 17.8717C29.0833 18.8643 27.032 20.5466 25.5887 22.7055C24.1454 24.8645 23.375 27.403 23.375 30C23.3676 31.7938 23.73 33.5699 24.4398 35.2173C25.1495 36.8647 26.1913 38.3482 27.5 39.575L25.2 42.075C23.4529 40.4367 22.0829 38.4383 21.1847 36.2181C20.2865 33.9979 19.8816 31.6089 19.9981 29.2168C20.1146 26.8246 20.7498 24.4863 21.8595 22.3639C22.9692 20.2415 24.527 18.3857 26.425 16.925H24.45C21.4082 16.9353 18.4651 18.0059 16.1276 19.9525C13.7901 21.899 12.2044 24.5996 11.6436 27.5894C11.0828 30.5791 11.5819 33.6708 13.0551 36.3321C14.5283 38.9935 16.8833 41.0579 19.7146 42.1699C22.5459 43.2819 25.6764 43.372 28.5669 42.4245C31.4575 41.4771 33.9272 39.5514 35.5509 36.9792C37.1746 34.4069 37.8507 31.349 37.4626 28.332C37.0746 25.315 35.6468 22.5276 33.425 20.45L35.725 17.95C37.3814 19.4897 38.7025 21.3545 39.6058 23.4278C40.5091 25.5011 40.9752 27.7384 40.975 30C40.9974 32.5417 40.4233 35.0532 39.2987 37.3327C38.1742 39.6122 36.5306 41.5961 34.5 43.125ZM36.475 46.525H24.525C20.1423 46.525 15.9391 44.784 12.8401 41.6849C9.74102 38.5859 8 34.3827 8 30C8 25.6173 9.74102 21.4141 12.8401 18.315C15.9391 15.216 20.1423 13.475 24.525 13.475H36.475C40.8577 13.475 45.0609 15.216 48.1599 18.315C51.259 21.4141 53 25.6173 53 30C53 34.3827 51.259 38.5859 48.1599 41.6849C45.0609 44.784 40.8577 46.525 36.475 46.525Z" fill="white"/>
<defs>
<linearGradient id="paint0_linear_6_17166" x1="0.416666" y1="7.09353e-07" x2="71.9931" y2="36.4478" gradientUnits="userSpaceOnUse">
<stop stop-color="#1DA750"/>
<stop offset="0.859375" stop-color="#0B655B"/>
</linearGradient>
</defs>
</svg>
