<svg width="36" height="36" viewBox="0 0 36 36" fill="none" xmlns="http://www.w3.org/2000/svg">
<path d="M28.23 31.5C27.4452 31.3006 26.7456 30.8535 26.235 30.225L17.88 21.87L9.18 30.57C8.80923 30.9799 8.32279 31.2675 7.785 31.395L7.395 31.5H6.99H6.885C6.54379 31.4692 6.21236 31.3697 5.91072 31.2072C5.60908 31.0448 5.3435 30.8229 5.13 30.555C4.79817 30.1438 4.58084 29.6522 4.5 29.13V28.59C4.66153 27.7636 5.10084 27.0173 5.745 26.475L10.965 21.27L13.395 18.84L11.715 17.145L7.755 13.185C7.16363 12.6059 6.70152 11.9083 6.39904 11.1379C6.09656 10.3674 5.96057 9.54173 6 8.715C5.86802 7.48649 6.02204 6.2441 6.45 5.085C6.63 4.71 6.75 4.5 7.5 4.5C8.03378 4.59507 8.51122 4.89011 8.835 5.325C11.16 7.635 13.5 9.93 15.765 12.24L17.88 14.355C18.3354 13.9392 18.6144 13.365 18.66 12.75C18.7455 11.7667 19.1884 10.8488 19.905 10.17L25.245 4.83C25.4559 4.61932 25.7419 4.50099 26.04 4.50099C26.3381 4.50099 26.6241 4.61932 26.835 4.83C27.0457 5.04094 27.164 5.32687 27.164 5.625C27.164 5.92313 27.0457 6.20906 26.835 6.42L22.995 10.26L23.565 10.83L27.405 6.99C27.5084 6.88386 27.632 6.79951 27.7686 6.74191C27.9051 6.68432 28.0518 6.65464 28.2 6.65464C28.3482 6.65464 28.4949 6.68432 28.6314 6.74191C28.768 6.79951 28.8916 6.88386 28.995 6.99C29.1826 7.19471 29.2867 7.46231 29.2867 7.74C29.2867 8.01769 29.1826 8.28529 28.995 8.49L25.125 12.435L25.725 13.02L29.565 9.165C29.7759 8.95432 30.0619 8.83599 30.36 8.83599C30.6581 8.83599 30.9441 8.95432 31.155 9.165C31.2611 9.26842 31.3455 9.39204 31.4031 9.52858C31.4607 9.66512 31.4904 9.81181 31.4904 9.96C31.4904 10.1082 31.4607 10.2549 31.4031 10.3914C31.3455 10.528 31.2611 10.6516 31.155 10.755L26.055 15.885C25.2857 16.7529 24.2109 17.2903 23.055 17.385C22.4762 17.4293 21.9377 17.6985 21.555 18.135L30.315 26.88C30.6948 27.2206 30.9677 27.664 31.1008 28.1565C31.2339 28.6489 31.2215 29.1694 31.065 29.655C30.9442 30.1062 30.7032 30.5161 30.3677 30.841C30.0322 31.1659 29.6148 31.3937 29.16 31.5H28.935H28.23ZM28.23 29.04L28.365 29.175C28.4362 29.2223 28.5195 29.2483 28.605 29.25C28.6962 29.2476 28.7837 29.2132 28.8523 29.1529C28.9208 29.0926 28.966 29.0102 28.98 28.92C28.98 28.785 28.98 28.68 28.77 28.47L20.04 19.74L19.485 20.295L28.23 29.04ZM6.975 28.5C6.92206 28.548 6.87656 28.6036 6.84 28.665C6.80577 28.7243 6.78775 28.7915 6.78775 28.86C6.78775 28.9285 6.80577 28.9957 6.84 29.055C6.8728 29.115 6.92026 29.1658 6.97797 29.2025C7.03567 29.2392 7.10174 29.2607 7.17 29.265C7.2521 29.26 7.33214 29.2373 7.40464 29.1985C7.47714 29.1597 7.54037 29.1056 7.59 29.04L15.54 21L15 20.46L6.975 28.5ZM8.295 8.07C8.25792 8.37854 8.24289 8.68932 8.25 9C8.24746 9.47474 8.34043 9.94514 8.5234 10.3832C8.70636 10.8213 8.97556 11.2181 9.315 11.55C11.195 13.41 13.09 15.28 15 17.16L17.19 19.335L18.405 18.12L8.295 8.07ZM20.07 16.5C20.8699 15.6919 21.9359 15.2016 23.07 15.12C23.4214 15.0777 23.7487 14.9193 24 14.67L21.33 12C21.0938 12.2687 20.9471 12.6042 20.91 12.96C20.8468 14.0987 20.3535 15.171 19.53 15.96L20.07 16.5Z" fill="currentColor"/>
</svg>
