<svg width="36" height="36" viewBox="0 0 36 36" fill="none" xmlns="http://www.w3.org/2000/svg">
<path d="M28.035 26.79C31.935 22.89 31.485 16.095 31.485 16.095H30.825C27.9865 16.0797 25.1901 16.7814 22.695 18.135C22.9657 17.2242 23.1071 16.28 23.115 15.33C23.115 9.79495 18 5.32495 18 5.32495C18 5.32495 12.885 9.82495 12.885 15.315C12.8929 16.265 13.0343 17.2092 13.305 18.12C10.8099 16.7664 8.01352 16.0647 5.175 16.08H4.5C4.5 16.08 4.05 22.875 7.95 26.775C10.815 29.64 15.225 30.15 17.37 30.225H18.6C20.76 30.165 25.17 29.655 28.035 26.79ZM26.445 25.1999C24.5462 26.8279 22.1626 27.7824 19.665 27.915C19.7998 25.4179 20.754 23.0349 22.38 21.135C24.2828 19.5138 26.6641 18.5602 29.16 18.42C29.0319 20.9185 28.0768 23.3036 26.445 25.1999ZM18 8.59495C19.6701 10.4576 20.6774 12.8202 20.865 15.315C20.6807 17.8105 19.673 20.1741 18 22.035C16.327 20.1741 15.3193 17.8105 15.135 15.315C15.3226 12.8202 16.3299 10.4576 18 8.59495ZM9.555 25.1999C7.92316 23.3036 6.96808 20.9185 6.84 18.42C9.33585 18.5602 11.7171 19.5138 13.62 21.135C15.2518 23.0313 16.2069 25.4164 16.335 27.915C13.8374 27.7824 11.4538 26.8279 9.555 25.1999Z" fill="currentColor"/>
</svg>
