<svg width="36" height="36" viewBox="0 0 36 36" fill="none" xmlns="http://www.w3.org/2000/svg">
<path d="M6.945 30C6.32439 30 5.7292 29.7535 5.29037 29.3146C4.85153 28.8758 4.605 28.2806 4.605 27.66V8.16C4.60896 7.542 4.85724 6.95065 5.29565 6.51506C5.73405 6.07946 6.32698 5.83499 6.945 5.835H16.71L24 13.125V13.665L21.765 15.855V14.28L15.555 14.175L15.66 8.175L6.945 8.07L6.84 27.705L24 27.81C23.925 28.4032 23.6404 28.95 23.1975 29.3516C22.7546 29.7533 22.1827 29.9832 21.585 30H6.945ZM8.895 26.325L10.095 20.325L11.7 20.4L10.92 24L13.725 21.75H15.48L15.99 24.36H16.2H16.335C16.4559 24.3177 16.5821 24.2925 16.71 24.285L16.605 26.01H14.88L14.205 23.115L10.5 26.37L8.895 26.325ZM17.565 25.845L17.67 23.145L24.6 16.26L27.255 19.065L20.325 25.845H17.565ZM26.67 21L29.835 18L29.115 17.115L28.11 17.97L25.5 15.255L28.11 12.765C28.1686 12.7119 28.2374 12.6712 28.3121 12.6454C28.3869 12.6197 28.4661 12.6093 28.545 12.615C28.7372 12.6164 28.9248 12.6737 29.085 12.78L30.78 14.475C30.8823 14.6141 30.9375 14.7823 30.9375 14.955C30.9375 15.1277 30.8823 15.2959 30.78 15.435C30.54 15.675 30.27 15.945 30.27 16.23C30.27 16.515 30.54 16.785 30.795 17.04C31.05 17.295 31.485 17.73 31.38 18.03C31.275 18.33 31.02 18.735 30.675 19.08L27.675 22.08L26.67 21Z" fill="currentColor"/>
</svg>
